<svg xmlns="http://www.w3.org/2000/svg" xmlns:xlink="http://www.w3.org/1999/xlink" width="500" zoomAndPan="magnify" viewBox="0 0 375 374.999991" height="500" preserveAspectRatio="xMidYMid meet" version="1.0"><defs><g/><clipPath id="843f343d3d"><path d="M 375 112.5 L 375 262.5 C 375 324.632812 324.632812 375 262.5 375 L 112.5 375 C 50.367188 375 0 324.632812 0 262.5 L 0 112.5 C 0 50.367188 50.367188 0 112.5 0 L 262.5 0 C 324.632812 0 375 50.367188 375 112.5 Z M 375 112.5 " clip-rule="nonzero"/></clipPath><clipPath id="48ef34d80c"><path d="M 0 0 L 375 0 L 375 375 L 0 375 Z M 0 0 " clip-rule="nonzero"/></clipPath><clipPath id="6b586e5507"><path d="M 375 112.5 L 375 262.5 C 375 324.632812 324.632812 375 262.5 375 L 112.5 375 C 50.367188 375 0 324.632812 0 262.5 L 0 112.5 C 0 50.367188 50.367188 0 112.5 0 L 262.5 0 C 324.632812 0 375 50.367188 375 112.5 Z M 375 112.5 " clip-rule="nonzero"/></clipPath><clipPath id="5a7d974beb"><rect x="0" width="375" y="0" height="375"/></clipPath><clipPath id="a951a1bab4"><path d="M 0.121094 13 L 138 13 L 138 324 L 0.121094 324 Z M 0.121094 13 " clip-rule="nonzero"/></clipPath><clipPath id="0ce7ae9f13"><rect x="0" width="138" y="0" height="311"/></clipPath><clipPath id="c932ee9466"><rect x="0" width="138" y="0" height="311"/></clipPath><clipPath id="49eaeb27f0"><path d="M 171 13 L 309.238281 13 L 309.238281 324 L 171 324 Z M 171 13 " clip-rule="nonzero"/></clipPath><clipPath id="07964b3473"><rect x="0" width="139" y="0" height="311"/></clipPath><clipPath id="38c214fb11"><rect x="0" width="310" y="0" height="324"/></clipPath></defs><g clip-path="url(#843f343d3d)"><g transform="matrix(1, 0, 0, 1, 0, 0)"><g clip-path="url(#5a7d974beb)"><g clip-path="url(#48ef34d80c)"><g clip-path="url(#6b586e5507)"><rect x="-82.5" width="540" fill="#ffffff" height="539.999987" y="-82.499998" fill-opacity="1"/></g></g></g></g></g><g transform="matrix(1, 0, 0, 1, 39, 42)"><g clip-path="url(#38c214fb11)"><g clip-path="url(#a951a1bab4)"><g transform="matrix(1, 0, 0, 1, 0, 13)"><g clip-path="url(#0ce7ae9f13)"><g fill="#000000" fill-opacity="1"><g transform="translate(5.538975, 248.617939)"><g><path d="M 10.84375 0.921875 C 6.914062 0.921875 3.921875 -0.726562 1.859375 -4.03125 C 0.410156 -6.5 -0.15625 -8.40625 0.15625 -9.75 C 0.46875 -11.09375 0.929688 -13.625 1.546875 -17.34375 L 47.375 -205.90625 C 48.195312 -209 49.484375 -211.78125 51.234375 -214.25 C 52.992188 -216.726562 55.316406 -217.96875 58.203125 -217.96875 L 107.75 -217.96875 C 110.84375 -217.96875 113.472656 -216.832031 115.640625 -214.5625 C 117.804688 -212.300781 118.890625 -209.414062 118.890625 -205.90625 L 75.546875 -16.71875 C 74.304688 -11.351562 73.066406 -7.378906 71.828125 -4.796875 C 70.585938 -2.210938 68.109375 -0.5625 64.390625 0.15625 C 60.679688 0.875 54.644531 1.179688 46.28125 1.078125 C 37.925781 0.972656 26.113281 0.921875 10.84375 0.921875 Z M 10.84375 0.921875 "/></g></g></g></g></g></g><g transform="matrix(1, 0, 0, 1, 89, 0)"><g clip-path="url(#c932ee9466)"><g fill="#000000" fill-opacity="1"><g transform="translate(5.618501, 247.6773)"><g><path d="M 10.84375 0.921875 C 6.914062 0.921875 3.921875 -0.726562 1.859375 -4.03125 C 0.410156 -6.5 -0.15625 -8.40625 0.15625 -9.75 C 0.46875 -11.09375 0.929688 -13.625 1.546875 -17.34375 L 47.375 -205.90625 C 48.195312 -209 49.484375 -211.78125 51.234375 -214.25 C 52.992188 -216.726562 55.316406 -217.96875 58.203125 -217.96875 L 107.75 -217.96875 C 110.84375 -217.96875 113.472656 -216.832031 115.640625 -214.5625 C 117.804688 -212.300781 118.890625 -209.414062 118.890625 -205.90625 L 75.546875 -16.71875 C 74.304688 -11.351562 73.066406 -7.378906 71.828125 -4.796875 C 70.585938 -2.210938 68.109375 -0.5625 64.390625 0.15625 C 60.679688 0.875 54.644531 1.179688 46.28125 1.078125 C 37.925781 0.972656 26.113281 0.921875 10.84375 0.921875 Z M 10.84375 0.921875 "/></g></g></g></g></g><g clip-path="url(#49eaeb27f0)"><g transform="matrix(1, 0, 0, 1, 171, 13)"><g clip-path="url(#07964b3473)"><g fill="#000000" fill-opacity="1"><g transform="translate(6.128999, 248.617939)"><g><path d="M 10.84375 0.921875 C 6.914062 0.921875 3.921875 -0.726562 1.859375 -4.03125 C 0.410156 -6.5 -0.15625 -8.40625 0.15625 -9.75 C 0.46875 -11.09375 0.929688 -13.625 1.546875 -17.34375 L 47.375 -205.90625 C 48.195312 -209 49.484375 -211.78125 51.234375 -214.25 C 52.992188 -216.726562 55.316406 -217.96875 58.203125 -217.96875 L 107.75 -217.96875 C 110.84375 -217.96875 113.472656 -216.832031 115.640625 -214.5625 C 117.804688 -212.300781 118.890625 -209.414062 118.890625 -205.90625 L 75.546875 -16.71875 C 74.304688 -11.351562 73.066406 -7.378906 71.828125 -4.796875 C 70.585938 -2.210938 68.109375 -0.5625 64.390625 0.15625 C 60.679688 0.875 54.644531 1.179688 46.28125 1.078125 C 37.925781 0.972656 26.113281 0.921875 10.84375 0.921875 Z M 10.84375 0.921875 "/></g></g></g></g></g></g></g></g></svg>